<svg width="19" height="19" viewBox="0 0 19 19" fill="none" xmlns="http://www.w3.org/2000/svg">
<mask id="path-1-inside-1" fill="white">
<path d="M18.8962 18.3927L13.3604 12.8494C14.7724 11.4859 15.6472 9.60618 15.6472 7.53313C15.6472 3.37915 12.1377 0 7.82358 0C3.50943 0 0 3.37915 0 7.53313C0 11.6871 3.50943 15.0663 7.82358 15.0663C9.71725 15.0663 11.4552 14.4145 12.8098 13.3329L18.359 18.8899C18.432 18.9634 18.5296 19 18.6276 19C18.7207 19 18.8135 18.9666 18.8857 18.8999C19.034 18.7625 19.0385 18.5355 18.8962 18.3927ZM7.82358 14.3488C3.92036 14.3488 0.745103 11.2915 0.745103 7.53313C0.745103 3.77482 3.92036 0.717441 7.82358 0.717441C11.7268 0.717441 14.9021 3.77482 14.9021 7.53313C14.9021 11.2915 11.7264 14.3488 7.82358 14.3488Z"/>
</mask>
<path d="M18.8962 18.3927L13.3604 12.8494C14.7724 11.4859 15.6472 9.60618 15.6472 7.53313C15.6472 3.37915 12.1377 0 7.82358 0C3.50943 0 0 3.37915 0 7.53313C0 11.6871 3.50943 15.0663 7.82358 15.0663C9.71725 15.0663 11.4552 14.4145 12.8098 13.3329L18.359 18.8899C18.432 18.9634 18.5296 19 18.6276 19C18.7207 19 18.8135 18.9666 18.8857 18.8999C19.034 18.7625 19.0385 18.5355 18.8962 18.3927ZM7.82358 14.3488C3.92036 14.3488 0.745103 11.2915 0.745103 7.53313C0.745103 3.77482 3.92036 0.717441 7.82358 0.717441C11.7268 0.717441 14.9021 3.77482 14.9021 7.53313C14.9021 11.2915 11.7264 14.3488 7.82358 14.3488Z" fill="#C4C4C4"/>
<path d="M18.8962 18.3927L19.6044 17.6867L19.6038 17.6861L18.8962 18.3927ZM13.3604 12.8494L12.6658 12.13L11.9343 12.8364L12.6528 13.556L13.3604 12.8494ZM12.8098 13.3329L13.5174 12.6263L12.8851 11.9932L12.1859 12.5515L12.8098 13.3329ZM18.359 18.8899L19.0686 18.1853L19.0666 18.1833L18.359 18.8899ZM18.8857 18.8999L19.5641 19.6347L19.5654 19.6334L18.8857 18.8999ZM19.6038 17.6861L14.068 12.1428L12.6528 13.556L18.1886 19.0993L19.6038 17.6861ZM14.0551 13.5687C15.649 12.0296 16.6472 9.89533 16.6472 7.53313H14.6472C14.6472 9.31704 13.8959 10.9422 12.6658 12.13L14.0551 13.5687ZM16.6472 7.53313C16.6472 2.79154 12.654 -1 7.82358 -1V1C11.6214 1 14.6472 3.96675 14.6472 7.53313H16.6472ZM7.82358 -1C2.99314 -1 -1 2.79154 -1 7.53313H1C1 3.96675 4.02572 1 7.82358 1V-1ZM-1 7.53313C-1 12.2747 2.99314 16.0663 7.82358 16.0663V14.0663C4.02572 14.0663 1 11.0995 1 7.53313H-1ZM7.82358 16.0663C9.94958 16.0663 11.9064 15.3339 13.4337 14.1144L12.1859 12.5515C11.004 13.4951 9.48493 14.0663 7.82358 14.0663V16.0663ZM12.1022 14.0395L17.6514 19.5965L19.0666 18.1833L13.5174 12.6263L12.1022 14.0395ZM17.6494 19.5945C17.9235 19.8706 18.2828 20 18.6276 20V18C18.7763 18 18.9404 18.0562 19.0686 18.1853L17.6494 19.5945ZM18.6276 20C18.9585 20 19.2973 19.8809 19.5641 19.6347L18.2074 18.1651C18.3296 18.0523 18.4829 18 18.6276 18V20ZM19.5654 19.6334C20.1287 19.1115 20.1473 18.2314 19.6044 17.6867L18.1879 19.0987C17.9296 18.8395 17.9394 18.4135 18.2061 18.1664L19.5654 19.6334ZM7.82358 13.3488C4.43665 13.3488 1.7451 10.7038 1.7451 7.53313H-0.254897C-0.254897 11.8791 3.40407 15.3488 7.82358 15.3488V13.3488ZM1.7451 7.53313C1.7451 4.36242 4.43665 1.71744 7.82358 1.71744V-0.282559C3.40407 -0.282559 -0.254897 3.18721 -0.254897 7.53313H1.7451ZM7.82358 1.71744C11.2105 1.71744 13.9021 4.36242 13.9021 7.53313H15.9021C15.9021 3.18721 12.2431 -0.282559 7.82358 -0.282559V1.71744ZM13.9021 7.53313C13.9021 10.7038 11.2102 13.3488 7.82358 13.3488V15.3488C12.2427 15.3488 15.9021 11.8791 15.9021 7.53313H13.9021Z" fill="#BBB8B8" mask="url(#path-1-inside-1)"/>
</svg>
